<svg width="25" height="24" viewBox="0 0 25 24" fill="none" xmlns="http://www.w3.org/2000/svg">
<path d="M24.7328 7.05204C24.6752 5.77422 24.4687 4.89992 24.1759 4.13611C23.8686 3.34828 23.4605 2.67574 22.7932 2.01281C22.1259 1.34988 21.4585 0.931946 20.6712 0.629304C19.9078 0.331465 19.034 0.129704 17.757 0.0720576C16.4751 0.0144115 16.067 0 12.812 0C9.55214 0 9.14406 0.0144115 7.867 0.0720576C6.58995 0.129704 5.71617 0.336269 4.95282 0.629304C4.16066 0.93675 3.48853 1.34508 2.82599 2.01281C2.16346 2.68054 1.74578 3.34828 1.44332 4.13611C1.15046 4.89992 0.944018 5.77422 0.886406 7.05204C0.828795 8.33467 0.814392 8.743 0.814392 12C0.814392 15.2618 0.828795 15.6701 0.886406 16.948C0.944018 18.2258 1.15046 19.1001 1.44332 19.8639C1.75058 20.6517 2.15866 21.3243 2.82599 21.9872C3.48853 22.6549 4.16066 23.0681 4.94802 23.3707C5.71137 23.6685 6.58515 23.8703 7.8622 23.9279C9.14406 23.9856 9.55214 24 12.8072 24C16.067 24 16.4751 23.9856 17.7522 23.9279C19.0292 23.8703 19.903 23.6637 20.6664 23.3707C21.4537 23.0633 22.1259 22.6549 22.7884 21.9872C23.4509 21.3195 23.8686 20.6517 24.1711 19.8639C24.4687 19.1001 24.6704 18.2258 24.728 16.948C24.7856 15.6653 24.8 15.257 24.8 12C24.8 8.743 24.7904 8.32986 24.7328 7.05204ZM22.5771 16.8519C22.5243 18.024 22.3275 18.6629 22.1643 19.0809C21.9482 19.6381 21.6842 20.0416 21.2617 20.4644C20.8392 20.8871 20.4407 21.1417 19.879 21.3675C19.4565 21.5308 18.818 21.7278 17.6514 21.7806C16.3887 21.8383 16.0094 21.8527 12.8024 21.8527C9.59535 21.8527 9.21607 21.8383 7.95342 21.7806C6.78199 21.7278 6.14346 21.5308 5.72577 21.3675C5.16886 21.1513 4.76558 20.8871 4.3431 20.4644C3.92061 20.0416 3.66616 19.6429 3.44052 19.0809C3.27728 18.6581 3.08045 18.0192 3.02763 16.8519C2.97002 15.5885 2.95562 15.209 2.95562 12C2.95562 8.79103 2.97002 8.41153 3.02763 7.14812C3.08045 5.97598 3.27728 5.33707 3.44052 4.91914C3.65656 4.36189 3.92061 3.95837 4.3431 3.53563C4.76558 3.11289 5.16406 2.85829 5.72577 2.63251C6.14826 2.46918 6.78679 2.27222 7.95342 2.21938C9.21607 2.16173 9.59535 2.14732 12.8024 2.14732C16.0094 2.14732 16.3887 2.16173 17.6514 2.21938C18.8228 2.27222 19.4613 2.46918 19.879 2.63251C20.4359 2.84868 20.8392 3.11289 21.2617 3.53563C21.6842 3.95837 21.9386 4.35709 22.1643 4.91914C22.3275 5.34187 22.5243 5.98079 22.5771 7.14812C22.6348 8.41153 22.6492 8.79103 22.6492 12C22.6492 15.209 22.63 15.5885 22.5771 16.8519Z" fill="white"/>
<path d="M12.8024 5.83191C9.39375 5.83191 6.638 8.59412 6.638 12C6.638 15.4108 9.39855 18.1682 12.8024 18.1682C16.2063 18.1682 18.9669 15.4012 18.9669 12C18.9669 8.58931 16.2111 5.83191 12.8024 5.83191ZM12.8024 16.0016C10.594 16.0016 8.80323 14.2098 8.80323 12C8.80323 9.79028 10.594 7.99844 12.8024 7.99844C15.0109 7.99844 16.8016 9.79028 16.8016 12C16.8016 14.2098 15.0109 16.0016 12.8024 16.0016Z" fill="white"/>
<path d="M19.2069 7.03282C20.0023 7.03282 20.6472 6.38759 20.6472 5.59167C20.6472 4.79574 20.0023 4.15051 19.2069 4.15051C18.4114 4.15051 17.7666 4.79574 17.7666 5.59167C17.7666 6.38759 18.4114 7.03282 19.2069 7.03282Z" fill="white"/>
<path d="M0.799988 12C0.799988 15.2618 0.814391 15.6701 0.872002 16.948C0.929614 18.2258 1.13606 19.1001 1.42891 19.8639C1.73618 20.6517 2.14426 21.3243 2.81159 21.9872C3.47412 22.6501 4.14626 23.0681 4.93361 23.3707C5.69697 23.6685 6.57074 23.8703 7.8478 23.9279C9.12965 23.9856 9.53773 24 12.7928 24C16.0526 24 16.4607 23.9856 17.7378 23.9279C19.0148 23.8703 19.8886 23.6637 20.652 23.3707C21.4393 23.0633 22.1115 22.6549 22.774 21.9872C23.4365 21.3243 23.8542 20.6517 24.1567 19.8639C24.4543 19.1001 24.656 18.2258 24.7136 16.948C24.7712 15.6653 24.7856 15.257 24.7856 12C24.7856 8.73819 24.7712 8.32986 24.7136 7.05204C24.656 5.77422 24.4495 4.89992 24.1567 4.13611C23.8494 3.34828 23.4413 2.67574 22.774 2.01281C22.1163 1.34508 21.4441 0.931946 20.6568 0.629304C19.8934 0.331465 19.0196 0.129704 17.7426 0.0720576C16.4607 0.0144115 16.0526 0 12.7976 0C9.53773 0 9.12965 0.0144115 7.8526 0.0720576C6.57554 0.129704 5.70177 0.336269 4.93842 0.629304C4.15106 0.93675 3.47892 1.34508 2.81639 2.01281C2.15386 2.68054 1.73618 3.34828 1.43371 4.13611C1.13605 4.89992 0.929614 5.77422 0.872002 7.05204C0.814391 8.32986 0.799988 8.73819 0.799988 12ZM2.96522 12C2.96522 8.79584 2.97962 8.41153 3.03724 7.14812C3.09005 5.97598 3.28689 5.33707 3.45012 4.91914C3.66616 4.36189 3.93021 3.95837 4.3527 3.53563C4.77518 3.11289 5.17366 2.85829 5.73537 2.63251C6.15786 2.46918 6.79639 2.27222 7.96302 2.21938C9.22567 2.16173 9.60495 2.14732 12.812 2.14732C16.019 2.14732 16.3983 2.16173 17.661 2.21938C18.8324 2.27222 19.4709 2.46918 19.8886 2.63251C20.4455 2.84868 20.8488 3.11289 21.2713 3.53563C21.6938 3.95837 21.9482 4.35709 22.1739 4.91914C22.3371 5.34187 22.5339 5.98079 22.5867 7.14812C22.6444 8.41153 22.6588 8.79103 22.6588 12C22.6588 15.209 22.6444 15.5885 22.5867 16.8519C22.5339 18.024 22.3371 18.6629 22.1739 19.0809C21.9578 19.6381 21.6938 20.0416 21.2713 20.4644C20.8488 20.8871 20.4503 21.1417 19.8886 21.3675C19.4661 21.5308 18.8276 21.7278 17.661 21.7806C16.3983 21.8383 16.019 21.8527 12.812 21.8527C9.60495 21.8527 9.22567 21.8383 7.96302 21.7806C6.79159 21.7278 6.15306 21.5308 5.73537 21.3675C5.17846 21.1513 4.77518 20.8871 4.3527 20.4644C3.93021 20.0416 3.67576 19.6429 3.45012 19.0809C3.28689 18.6581 3.09005 18.0192 3.03724 16.8519C2.97482 15.5885 2.96522 15.2042 2.96522 12Z" fill="white"/>
</svg>
