<svg width="25" height="24" viewBox="0 0 25 24" fill="none" xmlns="http://www.w3.org/2000/svg">
<g clip-path="url(#clip0_17_42)">
<path d="M0.799988 3.20169C0.799988 2.42947 1.07027 1.79241 1.6108 1.29049C2.15133 0.788555 2.85405 0.537598 3.71891 0.537598C4.56834 0.537598 5.25558 0.784686 5.78068 1.27891C6.32122 1.78856 6.59149 2.45264 6.59149 3.27119C6.59149 4.0125 6.32895 4.63025 5.80385 5.12447C5.26332 5.63412 4.55288 5.88895 3.67257 5.88895H3.64941C2.79998 5.88895 2.11274 5.63412 1.58763 5.12447C1.06253 4.61482 0.799988 3.97388 0.799988 3.20169ZM1.10115 23.472V7.99706H6.244V23.472H1.10115ZM9.09342 23.472H14.2363V14.831C14.2363 14.2905 14.2981 13.8735 14.4216 13.5801C14.6378 13.055 14.966 12.6109 15.4062 12.248C15.8463 11.8851 16.3984 11.7036 17.0625 11.7036C18.7923 11.7036 19.6571 12.8696 19.6571 15.2017V23.472H24.8V14.5994C24.8 12.3137 24.2595 10.5801 23.1784 9.3986C22.0973 8.21713 20.6687 7.6264 18.8927 7.6264C16.9004 7.6264 15.3483 8.48354 14.2363 10.1978V10.2442H14.2131L14.2363 10.1978V7.99706H9.09342C9.1243 8.49126 9.13976 10.0279 9.13976 12.6071C9.13976 15.1862 9.1243 18.8079 9.09342 23.472Z" fill="white"/>
</g>
<defs>
<clipPath id="clip0_17_42">
<rect width="24" height="24" fill="white" transform="translate(0.799988)"/>
</clipPath>
</defs>
</svg>
