<svg width="116" height="43" viewBox="0 0 116 43" fill="none" xmlns="http://www.w3.org/2000/svg">
<path d="M36.162 35.9367C33.231 38.9122 29.4835 40.9518 25.3934 41.7975C21.3033 42.6432 17.0543 42.257 13.1836 40.6879C9.31293 39.1187 5.99451 36.437 3.64796 32.9818C1.3014 29.5267 0.0321155 25.4533 0.000601397 21.2768C-0.0309127 17.1003 1.17676 13.0082 3.47091 9.51805C5.76506 6.0279 9.04264 3.29641 12.8892 1.66901C16.7357 0.0416127 20.9785 -0.408609 25.0809 0.375281C29.1833 1.15917 32.9611 3.14196 35.9367 6.07293L34.0796 7.95818C31.477 5.3945 28.1725 3.66018 24.5842 2.97452C20.9959 2.28886 17.2848 2.68266 13.9203 4.10613C10.5557 5.5296 7.68889 7.91879 5.68223 10.9716C3.67556 14.0244 2.61922 17.6037 2.64679 21.2568C2.67435 24.91 3.78458 28.4729 5.83709 31.4951C7.88959 34.5173 10.7922 36.8629 14.1778 38.2355C17.5634 39.608 21.28 39.9458 24.8576 39.206C28.4352 38.4663 31.7131 36.6823 34.2767 34.0796L36.162 35.9367Z" fill="black"/>
<path d="M29.7964 31.6424C28.198 33.2651 26.224 34.4686 24.0493 35.1463C21.8746 35.8239 19.5664 35.9548 17.329 35.5273C15.0917 35.0998 12.9943 34.1271 11.2227 32.6954C9.45104 31.2637 8.05984 29.4171 7.17231 27.3193C6.28477 25.2215 5.92829 22.9372 6.13444 20.6688C6.3406 18.4003 7.10302 16.2177 8.35419 14.3142C9.60535 12.4108 11.3066 10.8453 13.3073 9.75644C15.308 8.66755 17.5464 8.08889 19.8241 8.0717L19.8315 9.05212C17.715 9.06809 15.6351 9.60579 13.776 10.6176C11.9169 11.6294 10.3361 13.0841 9.17348 14.8528C8.01088 16.6215 7.30243 18.6496 7.11086 20.7575C6.9193 22.8654 7.25055 24.988 8.07526 26.9373C8.89998 28.8866 10.1927 30.6024 11.8389 31.9328C13.4852 33.2632 15.4341 34.167 17.513 34.5643C19.592 34.9615 21.7369 34.8399 23.7576 34.2102C25.7784 33.5805 27.6126 32.4622 29.098 30.9543L29.7964 31.6424Z" fill="black"/>
<path d="M14.2583 32.0002C11.6123 29.7566 9.87955 26.6236 9.40285 23.2208C8.92616 19.818 9.74022 16.3933 11.684 13.6242L12.4813 14.1937C10.6751 16.7668 9.91866 19.949 10.3616 23.111C10.8046 26.2729 12.4146 29.1842 14.8734 31.269L14.2583 32.0002Z" fill="black"/>
<path d="M55.5044 22.4192C55.5044 20.7311 55.1852 19.1404 54.5468 17.6471C53.9191 16.1429 52.9777 14.9255 51.7224 13.9949C50.4672 13.0643 48.9576 12.599 47.1938 12.599C45.4299 12.599 43.9204 13.0643 42.6651 13.9949C41.4099 14.9255 40.463 16.1429 39.8246 17.6471C39.197 19.1404 38.8832 20.7311 38.8832 22.4192C38.8832 24.1073 39.197 25.6926 39.8246 27.1751C40.463 28.6576 41.4099 29.8587 42.6651 30.7785C43.9204 31.6875 45.4299 32.142 47.1938 32.142C48.9576 32.142 50.4672 31.6875 51.7224 30.7785C52.9777 29.8587 53.9191 28.6576 54.5468 27.1751C55.1852 25.6926 55.5044 24.1073 55.5044 22.4192ZM53.9462 22.4192C53.9462 23.8584 53.6919 25.2164 53.1833 26.4933C52.6747 27.7594 51.9118 28.7874 50.8946 29.5774C49.8774 30.3565 48.6438 30.746 47.1938 30.746C45.7438 30.746 44.5101 30.3565 43.493 29.5774C42.4758 28.7874 41.7129 27.7594 41.2043 26.4933C40.6957 25.2164 40.4414 23.8584 40.4414 22.4192C40.4414 20.9583 40.7011 19.5894 41.2205 18.3126C41.7399 17.0248 42.5082 15.986 43.5254 15.1961C44.5426 14.3953 45.7654 13.9949 47.1938 13.9949C48.6222 13.9949 49.845 14.3953 50.8622 15.1961C51.8793 15.986 52.6476 17.0248 53.1671 18.3126C53.6865 19.5894 53.9462 20.9583 53.9462 22.4192Z" fill="black"/>
<path d="M76.2485 31.866C76.4974 31.866 76.6922 31.7957 76.8329 31.655C76.9844 31.5143 77.0601 31.3466 77.0601 31.1518C77.0601 30.9679 76.9898 30.811 76.8491 30.6811C76.7193 30.5404 76.5299 30.4701 76.281 30.4701H74.2033V14.2546H76.0375C76.2864 14.2546 76.4812 14.1897 76.6219 14.0598C76.7734 13.9192 76.8491 13.7569 76.8491 13.5729C76.8491 13.3781 76.7734 13.2104 76.6219 13.0697C76.4812 12.929 76.281 12.8587 76.0213 12.8587H72.9048C72.7317 12.8587 72.5802 12.9074 72.4503 13.0048C72.3205 13.0914 72.2285 13.205 72.1744 13.3457L67.4672 24.1884L62.5814 13.4268C62.4083 13.0481 62.1594 12.8587 61.8348 12.8587H58.6209C58.372 12.8587 58.1718 12.929 58.0203 13.0697C57.8797 13.2104 57.8093 13.3781 57.8093 13.5729C57.8093 13.7569 57.8797 13.9192 58.0203 14.0598C58.161 14.1897 58.3558 14.2546 58.6047 14.2546H60.5363V30.4701H58.3774C58.1286 30.4701 57.9338 30.5404 57.7931 30.6811C57.6524 30.8218 57.5821 30.9841 57.5821 31.1681C57.5821 31.3628 57.6524 31.5306 57.7931 31.6712C57.9338 31.8011 58.134 31.866 58.3937 31.866H64.0261C64.2858 31.866 64.486 31.7957 64.6266 31.655C64.7781 31.5143 64.8539 31.3466 64.8539 31.1518C64.8539 30.9679 64.7836 30.811 64.6429 30.6811C64.5022 30.5404 64.302 30.4701 64.0423 30.4701H62.0945V15.9914L66.4284 25.6168C66.5258 25.8549 66.661 26.0334 66.8342 26.1525C67.0073 26.2607 67.1967 26.3148 67.4023 26.3148C67.6187 26.3148 67.8243 26.2499 68.0191 26.12C68.2138 25.9793 68.3653 25.7846 68.4736 25.5357L72.6451 15.9265V30.4701H70.4863C70.2374 30.4701 70.0426 30.5404 69.9019 30.6811C69.7613 30.811 69.6909 30.9679 69.6909 31.1518C69.6909 31.3466 69.7613 31.5143 69.9019 31.655C70.0534 31.7957 70.259 31.866 70.5188 31.866H76.2485Z" fill="black"/>
<path d="M90.9707 19.2215C90.9707 18.9402 90.9112 18.7292 90.7922 18.5885C90.6731 18.437 90.527 18.3612 90.3539 18.3612C90.1916 18.3612 90.0455 18.4262 89.9156 18.556C89.7966 18.6859 89.7263 18.8644 89.7046 19.0917L89.4936 21.2505H84.2021V14.2546H94.0872L94.3144 18.2152C94.3253 18.4099 94.3956 18.5614 94.5254 18.6697C94.6661 18.7779 94.823 18.832 94.9962 18.832C95.1693 18.832 95.3208 18.7725 95.4507 18.6534C95.5805 18.5236 95.6454 18.345 95.6454 18.1178V13.7352C95.6454 13.4647 95.5589 13.2537 95.3857 13.1022C95.2234 12.9399 95.007 12.8587 94.7365 12.8587H80.485C80.2361 12.8587 80.0359 12.929 79.8845 13.0697C79.7438 13.2104 79.6734 13.3781 79.6734 13.5729C79.6734 13.7569 79.7384 13.9192 79.8682 14.0598C80.0089 14.1897 80.2037 14.2546 80.4526 14.2546H82.6438V30.4863H79.8845C79.6356 30.4863 79.4354 30.5567 79.2839 30.6973C79.1432 30.8272 79.0729 30.9841 79.0729 31.1681C79.0729 31.352 79.1432 31.5143 79.2839 31.655C79.4354 31.7957 79.641 31.866 79.9007 31.866H94.9312C95.2018 31.866 95.4182 31.7903 95.5805 31.6388C95.7536 31.4873 95.8402 31.2763 95.8402 31.0057V26.6232C95.8402 26.3527 95.7699 26.1471 95.6292 26.0064C95.4993 25.8549 95.3424 25.7791 95.1585 25.7791C94.9745 25.7791 94.8122 25.8387 94.6715 25.9577C94.5309 26.0767 94.4551 26.2282 94.4443 26.4122L94.1846 30.4863H84.2021V22.5003H89.4936L89.7046 24.9026C89.7154 25.1191 89.7858 25.2922 89.9156 25.422C90.0455 25.5411 90.1916 25.6006 90.3539 25.6006C90.527 25.6006 90.6731 25.5303 90.7922 25.3896C90.9112 25.2489 90.9707 25.0433 90.9707 24.7728V19.2215Z" fill="black"/>
<path d="M110.579 12.8587C110.146 12.8587 109.929 13.0968 109.929 13.5729C109.929 14.0274 110.14 14.2546 110.562 14.2546H112.202L107.706 20.8934L103.242 14.2546H105.644C106.066 14.2546 106.277 14.0274 106.277 13.5729C106.277 13.0968 106.061 12.8587 105.628 12.8587H100.174C99.7412 12.8587 99.5248 13.0968 99.5248 13.5729C99.5248 14.0274 99.7358 14.2546 100.158 14.2546H101.489L106.829 22.1919L101.18 30.535H99.8008C99.3787 30.535 99.1677 30.7569 99.1677 31.2005C99.1677 31.6442 99.3841 31.866 99.817 31.866H105.466C105.898 31.866 106.115 31.6442 106.115 31.2005C106.115 30.7569 105.904 30.535 105.482 30.535H103.063L107.771 23.5879L112.461 30.535H109.929C109.68 30.535 109.486 30.6054 109.345 30.746C109.204 30.8759 109.134 31.0274 109.134 31.2005C109.134 31.3845 109.204 31.5414 109.345 31.6712C109.486 31.8011 109.686 31.866 109.946 31.866H115.334C115.778 31.866 116 31.6388 116 31.1843C116 30.7515 115.789 30.535 115.367 30.535H114.182L108.647 22.3056L114.101 14.2546H115.286C115.708 14.2546 115.919 14.0274 115.919 13.5729C115.919 13.0968 115.702 12.8587 115.27 12.8587H110.579Z" fill="black"/>
</svg>
