<svg width="23" height="20" viewBox="0 0 23 20" fill="none" xmlns="http://www.w3.org/2000/svg">
<path d="M20.457 5.18078C20.4663 5.39198 20.4663 5.59358 20.4663 5.80478C20.4755 12.208 15.7711 19.6 7.16783 19.6C4.63038 19.6 2.13924 18.8416 0 17.4208C0.370431 17.4688 0.740861 17.488 1.11129 17.488C3.21349 17.488 5.26011 16.7584 6.91779 15.4048C4.91746 15.3664 3.15792 14.0128 2.54671 12.0352C3.25053 12.1792 3.97287 12.1504 4.65816 11.9488C2.48188 11.5072 0.916816 9.51999 0.907555 7.20639C0.907555 7.18719 0.907555 7.16799 0.907555 7.14879C1.55581 7.52319 2.28741 7.73439 3.02827 7.75359C0.981641 6.33278 0.342648 3.50077 1.58359 1.28317C3.96361 4.31678 7.46418 6.15038 11.224 6.35198C10.8444 4.67198 11.363 2.90557 12.5761 1.71517C14.4561 -0.118439 17.4195 -0.0224385 19.1976 1.92637C20.244 1.71517 21.2535 1.31197 22.1703 0.745564C21.8184 1.86877 21.0868 2.81917 20.1144 3.42397C21.0405 3.30877 21.948 3.04957 22.8 2.66557C22.1703 3.64477 21.3738 4.48958 20.457 5.18078Z" fill="white"/>
</svg>
